<svg width="986" height="950" viewBox="0 0 986 950" fill="none" xmlns="http://www.w3.org/2000/svg">
<g clip-path="url(#clip0_171_3301)">
<rect width="986" height="950" fill="#8BD3DD"/>
<path d="M711.556 0C669.767 18.9806 627.092 30.3857 582.659 16.5699C569.527 12.4874 556.803 6.74591 544.339 0H551.049C573.256 11.3339 596.154 19.1166 620.427 19.7063C649.864 20.4192 677.978 12.1115 705.541 0H711.556Z" fill="#65C5D2"/>
<path d="M153.561 0C151.526 0.738745 149.496 1.45805 147.461 2.15791C104.982 16.7254 56.2737 21.294 14.6287 0H20.8942C59.4961 17.9113 102.123 12.941 142.777 0H153.561Z" fill="#65C5D2"/>
<path d="M770.429 0C709.795 32.7121 648.138 67.1221 582.659 46.7677C552.353 37.3455 524.256 19.1166 496.384 0H501.601C539.458 25.6617 577.818 48.8738 620.427 49.9042C671.098 51.1289 717.857 25.6293 764.625 0H770.429Z" fill="#65C5D2"/>
<path d="M223.62 0C198.159 11.5802 172.828 23.6463 147.461 32.3493C99.8997 48.6664 44.5269 52.4379 0 21.4171V17.866C58.9314 60.7326 130.918 38.2787 191.602 11.1784C199.795 7.51705 207.974 3.75205 216.163 0L223.62 0Z" fill="#65C5D2"/>
<path d="M823.409 0H831.207C823.866 3.06514 816.592 6.40894 809.403 9.90825C736.112 45.5948 662.207 101.688 582.659 76.9591C536.164 62.5082 494.856 27.3271 451.593 0H456.962C509.959 34.1832 561.07 78.6634 620.427 80.0955C692.221 81.8322 756.163 29.9127 823.409 0Z" fill="#65C5D2"/>
<path d="M986 8.35948V11.9106C980.546 7.38097 974.859 3.42156 969.01 0H974.558C978.466 2.54025 982.285 5.32674 986 8.35948Z" fill="#65C5D2"/>
<path d="M303.63 0C250.803 13.0382 199.203 44.7977 147.461 62.5471C99.8997 78.8643 44.5269 82.6357 0 51.6149V48.0638C58.9314 90.9239 130.918 68.4765 191.602 41.3762C224.714 26.5883 257.651 10.0055 291.641 0H303.63Z" fill="#65C5D2"/>
<path d="M986 38.5573V42.102C966.558 25.9727 944.149 17.0235 921.973 14.075C883.653 8.9751 845.468 22.5382 809.403 40.0996C736.112 75.7926 662.207 131.885 582.659 107.157C514.481 85.9666 457.455 20.1988 389.062 0H398.326C406.295 2.68929 414.223 6.00716 422.111 9.9601C488.178 43.0611 548.198 108.55 620.427 110.293C703.802 112.309 776.587 41.9659 856.256 17.7623C889.291 7.7309 923.497 6.14973 956.084 20.2701C966.504 24.7868 976.593 30.8653 986 38.5573Z" fill="#65C5D2"/>
<path d="M986 68.7486V72.2998C966.558 56.1705 944.149 47.2213 921.973 44.2728C883.653 39.1729 845.468 52.736 809.403 70.2974C736.112 105.99 662.207 162.083 582.659 137.355C514.437 116.145 457.383 50.3059 388.932 30.1589C305.494 5.59889 226.65 65.5798 147.461 92.7449C99.8997 109.056 44.5269 112.834 0 81.8127V78.2616C58.9314 121.122 130.918 98.6743 191.602 71.574C231.553 53.7275 271.244 33.2824 312.84 24.9164C350.16 17.4059 386.534 22.3243 422.111 40.1514C488.178 73.2589 548.198 138.748 620.427 140.491C703.802 142.506 776.587 72.1572 856.256 47.9601C889.291 37.9287 923.497 36.341 956.084 50.4614C966.504 54.9782 976.593 61.0631 986 68.7486Z" fill="#65C5D2"/>
<path d="M986 98.9465V102.498C966.558 86.3619 944.149 77.4192 921.973 74.4707C883.653 69.3707 845.468 82.9338 809.403 100.495C736.112 136.182 662.207 192.281 582.659 167.553C514.437 146.343 457.383 80.5038 388.932 60.3568C305.494 35.7903 226.65 95.7776 147.461 122.943C99.8997 139.253 44.5269 143.031 0 112.011V108.459C58.9314 151.32 130.918 128.872 191.602 101.772C231.553 83.9253 271.244 63.4802 312.84 55.1143C350.16 47.6037 386.534 52.5222 422.111 70.3493C488.178 103.457 548.198 168.939 620.427 170.689C703.802 172.704 776.587 102.355 856.256 78.1579C889.291 68.1201 923.497 66.5389 956.084 80.6593C966.504 85.176 976.593 91.2609 986 98.9465Z" fill="#65C5D2"/>
<path d="M986 129.144V132.695C966.558 116.56 944.149 107.611 921.973 104.662C883.653 99.5686 845.468 113.132 809.403 130.693C736.112 166.38 662.207 222.472 582.659 197.744C514.437 176.541 457.383 110.702 388.932 90.5481C305.494 65.9881 226.65 125.969 147.461 153.134C99.8997 169.451 44.5269 173.223 0 142.202V138.651C58.9314 181.517 130.918 159.063 191.602 131.963C231.553 114.123 271.244 93.678 312.84 85.3056C350.16 77.8015 386.534 82.72 422.111 100.547C488.178 133.648 548.198 199.137 620.427 200.88C703.802 202.896 776.587 132.553 856.256 108.349C889.291 98.3179 923.497 96.7367 956.084 110.857C966.504 115.374 976.593 121.459 986 129.144Z" fill="#65C5D2"/>
<path d="M986 159.342V162.887C966.558 146.757 944.149 137.808 921.973 134.86C883.653 129.76 845.468 143.323 809.403 160.884C736.112 196.577 662.207 252.67 582.659 227.942C514.437 206.738 457.383 140.899 388.932 120.746C305.494 96.1859 226.65 156.167 147.461 183.332C99.8997 199.649 44.5269 203.421 0 172.4V168.849C58.9314 211.709 130.918 189.261 191.602 162.161C231.553 144.321 271.244 123.869 312.84 115.503C350.16 107.993 386.534 112.918 422.111 130.745C488.178 163.846 548.198 229.335 620.427 231.078C703.802 233.093 776.587 162.751 856.256 138.547C889.291 128.516 923.497 126.935 956.084 141.055C966.504 145.572 976.593 151.657 986 159.342Z" fill="#65C5D2"/>
<path d="M986 189.54V193.085C966.558 176.955 944.149 168.006 921.973 165.058C883.653 159.958 845.468 173.521 809.403 191.082C736.112 226.775 662.207 282.868 582.659 258.139C514.437 236.93 457.383 171.091 388.932 150.944C305.494 126.384 226.65 186.365 147.461 213.53C99.8997 229.84 44.5269 233.618 0 202.598V199.046C58.9314 241.907 130.918 219.459 191.602 192.359C231.553 174.512 271.244 154.067 312.84 145.701C350.16 138.191 386.534 143.109 422.111 160.936C488.178 194.044 548.198 259.533 620.427 261.276C703.802 263.291 776.587 192.942 856.256 168.745C889.291 158.713 923.497 157.126 956.084 171.253C966.504 175.769 976.593 181.854 986 189.54Z" fill="#65C5D2"/>
<path d="M986 219.731V223.282C966.558 207.147 944.149 198.204 921.973 195.255C883.653 190.156 845.468 203.719 809.403 221.28C736.112 256.967 662.207 313.066 582.659 288.337C514.437 267.128 457.383 201.289 388.932 181.142C305.494 156.575 226.65 216.562 147.461 243.727C99.8997 260.038 44.5269 263.816 0 232.795V229.244C58.9314 272.104 130.918 249.657 191.602 222.557C231.553 204.71 271.244 184.265 312.84 175.899C350.16 168.388 386.534 173.307 422.111 191.134C488.178 224.241 548.198 289.724 620.427 291.474C703.802 293.489 776.587 223.14 856.256 198.943C889.291 188.905 923.497 187.324 956.084 201.444C966.504 205.961 976.593 212.046 986 219.731Z" fill="#65C5D2"/>
<path d="M986 249.929V253.48C966.558 237.344 944.149 228.395 921.973 225.447C883.653 220.353 845.468 233.916 809.403 251.478C736.112 287.164 662.207 343.257 582.659 318.529C514.437 297.325 457.383 231.486 388.932 211.333C305.494 186.773 226.65 246.754 147.461 273.919C99.8997 290.236 44.5269 294.008 0 262.987V259.436C58.9314 302.302 130.918 279.848 191.602 252.748C231.553 234.908 271.244 214.463 312.84 206.09C350.16 198.586 386.534 203.505 422.111 221.332C488.178 254.439 548.198 319.922 620.427 321.665C703.802 323.68 776.587 253.338 856.256 229.134C889.291 219.103 923.497 217.521 956.084 231.642C966.504 236.159 976.593 242.244 986 249.929Z" fill="#65C5D2"/>
<path d="M986 280.127V283.672C966.558 267.542 944.149 258.593 921.973 255.645C883.653 250.545 845.468 264.108 809.403 281.669C736.112 317.362 662.207 373.455 582.659 348.726C514.437 327.523 457.383 261.684 388.932 241.531C305.494 216.971 226.65 276.952 147.461 304.117C99.8997 320.434 44.5269 324.205 0 293.185V289.633C58.9314 332.494 130.918 310.046 191.602 282.946C231.553 265.106 271.244 244.654 312.84 236.288C350.16 228.778 386.534 233.703 422.111 251.53C488.178 284.631 548.198 350.12 620.427 351.863C703.802 353.878 776.587 283.535 856.256 259.332C889.291 249.3 923.497 247.719 956.084 261.84C966.504 266.356 976.593 272.435 986 280.127Z" fill="#65C5D2"/>
<path d="M986 310.325V313.869C966.558 297.74 944.149 288.791 921.973 285.842C883.653 280.742 845.468 294.306 809.403 311.867C736.112 347.56 662.207 403.653 582.659 378.924C514.437 357.715 457.383 291.876 388.932 271.729C305.494 247.168 226.65 307.149 147.461 334.314C99.8997 350.625 44.5269 354.403 0 323.382V319.831C58.9314 362.691 130.918 340.244 191.602 313.144C231.553 295.297 271.244 274.852 312.84 266.486C350.16 258.975 386.534 263.894 422.111 281.721C488.178 314.828 548.198 380.318 620.427 382.061C703.802 384.076 776.587 313.727 856.256 289.53C889.291 279.498 923.497 277.911 956.084 292.038C966.504 296.554 976.593 302.633 986 310.325Z" fill="#65C5D2"/>
<path d="M986 340.516V344.067C966.558 327.931 944.149 318.989 921.973 316.04C883.653 310.94 845.468 324.503 809.403 342.065C736.112 377.751 662.207 433.851 582.659 409.122C514.437 387.912 457.383 322.073 388.932 301.926C305.494 277.36 226.65 337.347 147.461 364.512C99.8997 380.823 44.5269 384.601 0 353.58V350.029C58.9314 392.889 130.918 370.442 191.602 343.341C231.553 325.495 271.244 305.05 312.84 296.684C350.16 289.173 386.534 294.092 422.111 311.919C488.178 345.026 548.198 410.509 620.427 412.258C703.802 414.274 776.587 343.925 856.256 319.727C889.291 309.69 923.497 308.108 956.084 322.229C966.504 326.746 976.593 332.83 986 340.516Z" fill="#65C5D2"/>
<path d="M986 370.714V374.265C966.558 358.129 944.149 349.187 921.973 346.232C883.653 341.138 845.468 354.701 809.403 372.263C736.112 407.949 662.207 464.042 582.659 439.313C514.437 418.11 457.383 352.271 388.932 332.118C305.494 307.558 226.65 367.539 147.461 394.704C99.8997 411.021 44.5269 414.792 0 383.771V380.22C58.9314 423.087 130.918 400.633 191.602 373.533C231.553 355.693 271.244 335.248 312.84 326.875C350.16 319.371 386.534 324.29 422.111 342.117C488.178 375.224 548.198 440.707 620.427 442.45C703.802 444.465 776.587 374.122 856.256 349.919C889.291 339.887 923.497 338.306 956.084 352.427C966.504 356.943 976.593 363.028 986 370.714Z" fill="#65C5D2"/>
<path d="M986 400.912V404.456C966.558 388.327 944.149 379.378 921.973 376.429C883.653 371.329 845.468 384.892 809.403 402.454C736.112 438.147 662.207 494.24 582.659 469.511C514.437 448.308 457.383 382.469 388.932 362.315C305.494 337.755 226.65 397.736 147.461 424.901C99.8997 441.219 44.5269 444.99 0 413.969V410.418C58.9314 453.278 130.918 430.831 191.602 403.73C231.553 385.89 271.244 365.439 312.84 357.073C350.16 349.562 386.534 354.487 422.111 372.314C488.178 405.415 548.198 470.904 620.427 472.648C703.802 474.663 776.587 404.32 856.256 380.117C889.291 370.085 923.497 368.504 956.084 382.624C966.504 387.141 976.593 393.226 986 400.912Z" fill="#65C5D2"/>
<path d="M986 431.109V434.654C966.558 418.525 944.149 409.576 921.973 406.627C883.653 401.527 845.468 415.09 809.403 432.652C736.112 468.345 662.207 524.438 582.659 499.709C514.437 478.499 457.383 412.66 388.932 392.513C305.494 367.953 226.65 427.934 147.461 455.099C99.8997 471.41 44.5269 475.188 0 444.167V440.616C58.9314 483.476 130.918 461.029 191.602 433.928C231.553 416.082 271.244 395.637 312.84 387.271C350.16 379.76 386.534 384.679 422.111 402.506C488.178 435.613 548.198 501.102 620.427 502.845C703.802 504.861 776.587 434.512 856.256 410.314C889.291 400.283 923.497 398.695 956.084 412.822C966.504 417.339 976.593 423.424 986 431.109Z" fill="#65C5D2"/>
<path d="M986 461.301V464.852C966.558 448.716 944.149 439.774 921.973 436.825C883.653 431.725 845.468 445.288 809.403 462.85C736.112 498.536 662.207 554.635 582.659 529.907C514.437 508.697 457.383 442.858 388.932 422.711C305.494 398.145 226.65 458.132 147.461 485.297C99.8997 501.608 44.5269 505.386 0 474.365V470.814C58.9314 513.674 130.918 491.226 191.602 464.126C231.553 446.28 271.244 425.835 312.84 417.469C350.16 409.958 386.534 414.877 422.111 432.704C488.178 465.811 548.198 531.294 620.427 533.043C703.802 535.059 776.587 464.709 856.256 440.512C889.291 430.474 923.497 428.893 956.084 443.014C966.504 447.53 976.593 453.615 986 461.301Z" fill="#65C5D2"/>
<path d="M986 491.499V495.05C966.558 478.914 944.149 469.971 921.973 467.016C883.653 461.923 845.468 475.486 809.403 493.047C736.112 528.734 662.207 584.827 582.659 560.098C514.437 538.895 457.383 473.056 388.932 452.903C305.494 428.343 226.65 488.323 147.461 515.488C99.8997 531.806 44.5269 535.577 0 504.556V501.005C58.9314 543.872 130.918 521.418 191.602 494.318C231.553 476.478 271.244 456.032 312.84 447.66C350.16 440.156 386.534 445.074 422.111 462.902C488.178 496.009 548.198 561.492 620.427 563.235C703.802 565.25 776.587 494.907 856.256 470.704C889.291 460.672 923.497 459.091 956.084 473.212C966.504 477.728 976.593 483.813 986 491.499Z" fill="#65C5D2"/>
<path d="M986 521.696V525.241C966.558 509.112 944.149 500.163 921.973 497.214C883.653 492.114 845.468 505.677 809.403 523.239C736.112 558.932 662.207 615.024 582.659 590.296C514.437 569.093 457.383 503.254 388.932 483.1C305.494 458.54 226.65 518.521 147.461 545.686C99.8997 562.003 44.5269 565.775 0 534.754V531.203C58.9314 574.063 130.918 551.616 191.602 524.515C231.553 506.675 271.244 486.224 312.84 477.858C350.16 470.347 386.534 475.272 422.111 493.099C488.178 526.2 548.198 591.689 620.427 593.432C703.802 595.448 776.587 525.105 856.256 500.901C889.291 490.87 923.497 489.289 956.084 503.409C966.504 507.926 976.593 514.004 986 521.696Z" fill="#65C5D2"/>
<path d="M986 551.894V555.439C966.558 539.31 944.149 530.361 921.973 527.412C883.653 522.312 845.468 535.875 809.403 553.437C736.112 589.13 662.207 645.222 582.659 620.494C514.437 599.284 457.383 533.445 388.932 513.298C305.494 488.738 226.65 548.719 147.461 575.884C99.8997 592.195 44.5269 595.973 0 564.952V561.401C58.9314 604.261 130.918 581.813 191.602 554.713C231.553 536.867 271.244 516.422 312.84 508.056C350.16 500.545 386.534 505.464 422.111 523.291C488.178 556.398 548.198 621.887 620.427 623.63C703.802 625.646 776.587 555.296 856.256 531.099C889.291 521.068 923.497 519.48 956.084 533.607C966.504 538.124 976.593 544.202 986 551.894Z" fill="#65C5D2"/>
<path d="M986 582.086V585.637C966.558 569.507 944.149 560.558 921.973 557.61C883.653 552.51 845.468 566.073 809.403 583.634C736.112 619.321 662.207 675.42 582.659 650.692C514.437 629.482 457.383 563.643 388.932 543.496C305.494 518.929 226.65 578.917 147.461 606.082C99.8997 622.393 44.5269 626.171 0 595.15V591.599C58.9314 634.459 130.918 612.011 191.602 584.911C231.553 567.064 271.244 546.619 312.84 538.253C350.16 530.743 386.534 535.661 422.111 553.488C488.178 586.596 548.198 652.078 620.427 653.828C703.802 655.843 776.587 585.494 856.256 561.297C889.291 551.259 923.497 549.678 956.084 563.798C966.504 568.315 976.593 574.4 986 582.086Z" fill="#65C5D2"/>
<path d="M986 612.283V615.835C966.558 599.699 944.149 590.756 921.973 587.801C883.653 582.708 845.468 596.271 809.403 613.832C736.112 649.519 662.207 705.611 582.659 680.883C514.437 659.68 457.383 593.841 388.932 573.687C305.494 549.127 226.65 609.108 147.461 636.273C99.8997 652.59 44.5269 656.362 0 625.341V621.79C58.9314 664.657 130.918 642.203 191.602 615.102C231.553 597.262 271.244 576.817 312.84 568.445C350.16 560.941 386.534 565.859 422.111 583.686C488.178 616.794 548.198 682.276 620.427 684.019C703.802 686.035 776.587 615.692 856.256 591.488C889.291 581.457 923.497 579.876 956.084 593.996C966.504 598.513 976.593 604.598 986 612.283Z" fill="#65C5D2"/>
<path d="M986 642.481V646.026C966.558 629.897 944.149 620.947 921.973 617.999C883.653 612.899 845.468 626.462 809.403 644.023C736.112 679.717 662.207 735.809 582.659 711.081C514.437 689.878 457.383 624.038 388.932 603.885C305.494 579.325 226.65 639.306 147.461 666.471C99.8997 682.788 44.5269 686.56 0 655.539V651.988C58.9314 694.848 130.918 672.4 191.602 645.3C231.553 627.46 271.244 607.008 312.84 598.642C350.16 591.132 386.534 596.057 422.111 613.884C488.178 646.985 548.198 712.474 620.427 714.217C703.802 716.233 776.587 645.89 856.256 621.686C889.291 611.655 923.497 610.074 956.084 624.194C966.504 628.711 976.593 634.796 986 642.481Z" fill="#65C5D2"/>
<path d="M986 672.679V676.224C966.558 660.095 944.149 651.145 921.973 648.197C883.653 643.097 845.468 656.66 809.403 674.221C736.112 709.914 662.207 766.007 582.659 741.279C514.437 720.069 457.383 654.23 388.932 634.083C305.494 609.523 226.65 669.504 147.461 696.669C99.8997 712.98 44.5269 716.758 0 685.737V682.186C58.9314 725.046 130.918 702.598 191.602 675.498C231.553 657.651 271.244 637.206 312.84 628.84C350.16 621.33 386.534 626.248 422.111 644.075C488.178 677.183 548.198 742.672 620.427 744.415C703.802 746.43 776.587 676.081 856.256 651.884C889.291 641.853 923.497 640.265 956.084 654.392C966.504 658.909 976.593 664.994 986 672.679Z" fill="#65C5D2"/>
<path d="M986 702.87V706.422C966.558 690.292 944.149 681.343 921.973 678.395C883.653 673.295 845.468 686.858 809.403 704.419C736.112 740.106 662.207 796.205 582.659 771.476C514.437 750.267 457.383 684.428 388.932 664.281C305.494 639.714 226.65 699.702 147.461 726.867C99.8997 743.177 44.5269 746.955 0 715.935V712.383C58.9314 755.243 130.918 732.796 191.602 705.696C231.553 687.849 271.244 667.404 312.84 659.038C350.16 651.528 386.534 656.446 422.111 674.273C488.178 707.381 548.198 772.863 620.427 774.613C703.802 776.628 776.587 706.279 856.256 682.082C889.291 672.044 923.497 670.463 956.084 684.583C966.504 689.1 976.593 695.185 986 702.87Z" fill="#65C5D2"/>
<path d="M986 733.068V736.619C966.558 720.484 944.149 711.541 921.973 708.586C883.653 703.492 845.468 717.056 809.403 734.617C736.112 770.304 662.207 826.396 582.659 801.668C514.437 780.464 457.383 714.626 388.932 694.472C305.494 669.912 226.65 729.893 147.461 757.058C99.8997 773.375 44.5269 777.147 0 746.126V742.575C58.9314 785.441 130.918 762.987 191.602 735.887C231.553 718.047 271.244 697.602 312.84 689.229C350.16 681.725 386.534 686.644 422.111 704.471C488.178 737.578 548.198 803.061 620.427 804.804C703.802 806.82 776.587 736.477 856.256 712.273C889.291 702.242 923.497 700.661 956.084 714.781C966.504 719.298 976.593 725.383 986 733.068Z" fill="#65C5D2"/>
<path d="M986 763.266V766.811C966.558 750.682 944.149 741.732 921.973 738.784C883.653 733.684 845.468 747.247 809.403 764.808C736.112 800.501 662.207 856.594 582.659 831.866C514.437 810.662 457.383 744.823 388.932 724.67C305.494 700.11 226.65 760.091 147.461 787.256C99.8997 803.573 44.5269 807.345 0 776.324V772.773C58.9314 815.633 130.918 793.185 191.602 766.085C231.553 748.245 271.244 727.793 312.84 719.427C350.16 711.917 386.534 716.842 422.111 734.669C488.178 767.77 548.198 833.259 620.427 835.002C703.802 837.018 776.587 766.675 856.256 742.471C889.291 732.44 923.497 730.859 956.084 744.979C966.504 749.496 976.593 755.574 986 763.266Z" fill="#65C5D2"/>
<path d="M986 793.464V797.009C966.558 780.879 944.149 771.93 921.973 768.982C883.653 763.882 845.468 777.445 809.403 795.006C736.112 830.699 662.207 886.792 582.659 862.063C514.437 840.854 457.383 775.015 388.932 754.868C305.494 730.308 226.65 790.289 147.461 817.454C99.8997 833.764 44.5269 837.542 0 806.521V802.97C58.9314 845.831 130.918 823.383 191.602 796.283C231.553 778.436 271.244 757.991 312.84 749.625C350.16 742.115 386.534 747.033 422.111 764.86C488.178 797.968 548.198 863.457 620.427 865.2C703.802 867.215 776.587 796.866 856.256 772.669C889.291 762.637 923.497 761.05 956.084 775.177C966.504 779.693 976.593 785.772 986 793.464Z" fill="#65C5D2"/>
<path d="M986 823.655V827.206C966.558 811.077 944.149 802.128 921.973 799.18C883.653 794.08 845.468 807.643 809.403 825.204C736.112 860.891 662.207 916.99 582.659 892.261C514.437 871.052 457.383 805.213 388.932 785.066C305.494 760.499 226.65 820.487 147.461 847.652C99.8997 863.962 44.5269 867.74 0 836.719V833.168C58.9314 876.028 130.918 853.581 191.602 826.481C231.553 808.634 271.244 788.189 312.84 779.823C350.16 772.313 386.534 777.231 422.111 795.058C488.178 828.166 548.198 893.648 620.427 895.398C703.802 897.413 776.587 827.064 856.256 802.867C889.291 792.829 923.497 791.248 956.084 805.368C966.504 809.885 976.593 815.97 986 823.655Z" fill="#65C5D2"/>
<path d="M986 853.853V857.404C966.558 841.268 944.149 832.326 921.973 829.371C883.653 824.277 845.468 837.84 809.403 855.402C736.112 891.088 662.207 947.181 582.659 922.453C514.437 901.249 457.383 835.41 388.932 815.257C305.494 790.697 226.65 850.678 147.461 877.843C99.8997 894.16 44.5269 897.932 0 866.911V863.36C58.9314 906.226 130.918 883.772 191.602 856.672C231.553 838.832 271.244 818.387 312.84 810.014C350.16 802.51 386.534 807.429 422.111 825.256C488.178 858.363 548.198 923.846 620.427 925.596C703.802 927.604 776.587 857.262 856.256 833.058C889.291 823.027 923.497 821.446 956.084 835.566C966.504 840.083 976.593 846.168 986 853.853Z" fill="#65C5D2"/>
<path d="M422.111 855.454C477.116 883.014 527.931 933.022 585.088 950H574.802C510.013 926.431 454.739 864.83 388.932 845.455C305.494 820.895 226.65 880.875 147.461 908.041C99.8997 924.358 44.5269 928.129 0 897.108V893.557C58.9314 936.417 130.918 913.97 191.602 886.87C231.553 869.03 271.244 848.578 312.84 840.212C350.16 832.702 386.534 837.626 422.111 855.454Z" fill="#65C5D2"/>
<path d="M986 884.051V887.595C966.558 871.466 944.149 862.517 921.973 859.569C883.653 854.469 845.468 868.032 809.403 885.593C765.441 907.004 721.254 935.756 675.764 950H666.599C731.509 932.905 791.614 882.891 856.256 863.256C889.291 853.224 923.496 851.643 956.084 865.764C966.504 870.28 976.593 876.365 986 884.051Z" fill="#65C5D2"/>
<path d="M522.768 950H517.161C475.028 922.738 434.508 889.067 388.932 875.653C305.494 851.092 226.65 911.073 147.461 938.238C130.107 944.194 111.718 948.471 93.1949 950H64.1886C41.7437 948.011 19.7962 941.096 0 927.306V923.755C58.9314 966.615 130.918 944.168 191.602 917.068C231.553 899.221 271.244 878.776 312.84 870.41C350.16 862.899 386.534 867.818 422.111 885.645C456.442 902.85 489.141 928.797 522.768 950Z" fill="#65C5D2"/>
<path d="M986 914.249V917.793C966.558 901.664 944.149 892.715 921.973 889.767C883.653 884.667 845.468 898.23 809.403 915.791C787.85 926.289 766.243 938.55 744.457 950H738.868C777.743 929.542 816.126 905.643 856.256 893.454C889.291 883.422 923.497 881.835 956.084 895.962C966.504 900.478 976.593 906.563 986 914.249Z" fill="#65C5D2"/>
<path d="M422.111 915.843C441.033 925.323 459.458 937.461 477.816 950H472.706C445.69 931.629 418.364 914.514 388.932 905.85C321.503 885.995 257.073 921.364 193.041 950H185.399C187.479 949.093 189.545 948.186 191.602 947.265C231.553 929.419 271.244 908.974 312.84 900.608C350.16 893.097 386.534 898.016 422.111 915.843Z" fill="#65C5D2"/>
<path d="M986 944.44V947.991C966.558 931.862 944.149 922.913 921.973 919.964C883.653 914.864 845.468 928.427 809.403 945.989C806.709 947.298 804.016 948.639 801.322 950H794.814C815.032 939.47 835.406 929.983 856.256 923.651C889.291 913.614 923.496 912.032 956.084 926.153C966.504 930.67 976.592 936.754 986 944.44Z" fill="#65C5D2"/>
<path d="M422.111 946.041C424.648 947.311 427.18 948.633 429.699 950H423.29C412.099 944.304 400.683 939.502 388.932 936.042C345.378 923.224 303.074 933.437 261.321 950H252.994C272.656 941.861 292.524 934.888 312.84 930.799C350.16 923.295 386.534 928.213 422.111 946.041Z" fill="#65C5D2"/>
<path d="M937.543 950H920.727C910.248 948.71 899.779 948.814 889.368 950H870.867C893.029 945.075 915.528 944.369 937.543 950Z" fill="#65C5D2"/>
</g>
<defs>
<clipPath id="clip0_171_3301">
<rect width="986" height="950" fill="white"/>
</clipPath>
</defs>
</svg>
