<svg width="259" height="207" viewBox="0 0 259 207" fill="none" xmlns="http://www.w3.org/2000/svg">
<path d="M0 102.541V95L129 181.5L246.5 95.5001L258.5 95L258.673 102.098C258.877 110.469 254.877 118.386 248.017 123.188L142.816 196.829C134.527 202.632 123.488 202.611 115.219 196.778L10.5891 122.97C3.94922 118.286 0 110.667 0 102.541Z" fill="#212121"/>
<path fill-rule="evenodd" clip-rule="evenodd" d="M149.89 5.95964C138.599 -1.98656 120.292 -1.98654 109 5.95965L8.4685 76.7081C-2.82284 84.6543 -2.82283 97.5377 8.46852 105.484L109 176.232C120.292 184.179 138.599 184.179 149.89 176.232L250.422 105.484C261.713 97.5377 261.713 84.6543 250.422 76.7081L149.89 5.95964ZM200.505 72.4001C196.016 69.2413 188.739 69.2413 184.25 72.4001L167.711 84.0394C163.223 87.1981 163.223 92.3195 167.711 95.4782L184.25 107.118C188.739 110.276 196.016 110.276 200.505 107.118L217.044 95.4782C221.532 92.3195 221.532 87.1981 217.044 84.0394L200.505 72.4001ZM121.317 28.9496C125.806 25.7905 133.084 25.7905 137.573 28.9496L154.114 40.5901C158.603 43.7492 158.603 48.8711 154.114 52.0302L137.573 63.6707C133.084 66.8298 125.806 66.8298 121.317 63.6707L104.776 52.0302C100.287 48.8711 100.287 43.7492 104.776 40.5901L121.317 28.9496ZM84.9192 71.1169C79.334 67.1863 70.2786 67.1863 64.6933 71.1169L44.1129 85.6002C38.5277 89.5307 38.5277 95.9034 44.1129 99.834L116.576 150.829C122.161 154.76 131.216 154.76 136.802 150.829L157.382 136.346C162.967 132.415 162.967 126.043 157.382 122.112L84.9192 71.1169Z" fill="black"/>
</svg>
