<?xml version="1.0" encoding="UTF-8"?>
<svg id="Calque_2" data-name="Calque 2" xmlns="http://www.w3.org/2000/svg" viewBox="0 0 1456.11 401.5">
  <defs>
    <style>
      .cls-1 {
        fill: #212121;
      }

      .cls-2 {
        stroke-linecap: round;
        stroke-linejoin: bevel;
      }

      .cls-2, .cls-3 {
        fill: none;
        stroke: #212121;
        stroke-width: 5px;
      }

      .cls-3 {
        stroke-miterlimit: 10;
      }
    </style>
  </defs>
  <g id="Calque_1-2" data-name="Calque 1">
    <g>
      <g>
        <g>
          <polygon class="cls-1" points="59.37 123.97 80.53 123.97 80.53 98.15 198.03 98.15 198.03 76.99 59.37 76.99 59.37 123.97"/>
          <polygon class="cls-1" points="281.44 123.97 302.7 123.97 303.14 23.66 281.89 23.66 281.44 123.97"/>
          <polygon class="cls-1" points="380.56 145.13 380.56 380.34 23.66 380.34 23.66 401.5 401.72 401.5 401.72 145.13 380.56 145.13"/>
          <polygon class="cls-1" points="80.53 212.29 281.44 212.29 281.44 191.13 59.37 191.13 59.37 295.82 80.53 295.82 80.53 212.29"/>
        </g>
        <path class="cls-3" d="m2.5,2.5h279.48l-.54,121.47h99.12v256.37H2.5V2.5Zm195.53,121.47v-46.98H59.37v46.98h138.66Zm83.41,171.85v-104.69H59.37v104.69h222.07Z"/>
      </g>
      <g>
        <path class="cls-2" d="m579.71,80.12v13.05c0,13.22-5.5,17.17-13.22,20.27,7.9,1.72,14.43,6.18,14.43,20.61v14.94c0,28.51-7.73,36.24-36.41,36.24h-43.28V47.83h43.11c27.65,0,35.38,6.7,35.38,32.29Zm-27.48,13.4v-13.05c0-4.81-1.89-5.5-7.39-5.5h-16.14v24.73h17c4.64,0,6.53-1.72,6.53-6.18Zm1.2,55.13v-14.6c0-5.32-1.55-6.87-6.18-6.87h-18.55v30.57h15.11c7.21,0,9.62-2.23,9.62-9.1Z"/>
        <path class="cls-2" d="m685.17,75.31h-41.91v25.59h37.27v27.48h-37.27v29.37h41.91v27.48h-69.39V47.83h69.39v27.48Z"/>
        <path class="cls-2" d="m779.63,157.75h1.72l-1.2-109.92h27.48v137.4h-45.69l-16.49-109.92h-1.55l1.2,109.92h-27.48V47.83h45.86l16.14,109.92Z"/>
        <path class="cls-2" d="m865.33,158.78c0,1.72.69,2.58,2.4,2.58h19.24c1.72,0,2.4-.86,2.4-2.58V47.83h27.48v114.38c0,13.74-10.99,24.73-24.73,24.73h-29.54c-13.74,0-24.73-10.99-24.73-24.73v-27.14h27.48v23.7Z"/>
        <path class="cls-2" d="m975.93,157.92l-3.61,27.31h-27.48l20.78-131.56c.52-2.75,3.78-5.84,7.39-5.84h40.7c3.61,0,6.87,2.92,7.39,5.84l20.95,131.56h-27.48l-3.61-27.31h-35.04Zm24.56-79.35c-.17-2.4-1.2-3.26-2.23-3.26h-9.62c-1.2,0-2.06.86-2.23,3.26l-6.87,51.87h27.82l-6.87-51.87Z"/>
        <path class="cls-2" d="m1133.77,137.65l9.62-89.82h47.57l5.15,137.4h-27.48l-3.43-109.92h-1.55l-17.69,108.2h-24.56l-17.69-108.2h-1.55l-3.61,109.92h-27.48l5.32-137.4h45.69l11.68,89.82Z"/>
        <path class="cls-2" d="m1260.35,185.23h-27.48V47.83h27.48v137.4Z"/>
        <path class="cls-2" d="m1360.48,157.75h1.72l-1.2-109.92h27.48v137.4h-45.69l-16.49-109.92h-1.55l1.2,109.92h-27.48V47.83h45.86l16.14,109.92Z"/>
      </g>
      <g>
        <path class="cls-1" d="m581.4,254.9v13.05c0,13.22-5.5,17.17-13.22,20.27,7.9,1.72,14.43,6.18,14.43,20.61v14.94c0,28.51-7.73,36.24-36.41,36.24h-43.28v-137.4h43.11c27.65,0,35.38,6.7,35.38,32.29Zm-27.48,13.4v-13.05c0-4.81-1.89-5.5-7.39-5.5h-16.14v24.73h17c4.64,0,6.53-1.72,6.53-6.18Zm1.2,55.13v-14.6c0-5.32-1.55-6.87-6.18-6.87h-18.55v30.57h15.11c7.21,0,9.62-2.23,9.62-9.1Z"/>
        <path class="cls-1" d="m640.31,221.58h30.23c13.74,0,24.73,10.99,24.73,24.73v90.68c0,13.74-10.99,24.73-24.73,24.73h-30.23c-13.74,0-24.73-10.99-24.73-24.73v-90.68c0-13.74,10.99-24.73,24.73-24.73Zm5.15,114.56h19.75c1.72,0,2.58-.69,2.58-2.4v-84.16c0-1.72-.86-2.4-2.58-2.4h-19.75c-1.72,0-2.4.69-2.4,2.4v84.16c0,1.72.69,2.4,2.4,2.4Z"/>
        <path class="cls-1" d="m756.93,332.87c0,2.23.69,3.26,2.4,3.26h19.92c1.72,0,2.4-1.03,2.4-3.26v-110.26h27.48v114.38c0,13.74-10.99,24.73-24.73,24.73h-30.23c-13.74,0-24.73-10.99-24.73-24.73v-114.38h27.48v110.26Z"/>
        <path class="cls-1" d="m924.55,243.22v24.73c0,8.93-5.5,16.83-13.22,20.27,8.42,3.09,14.43,11.16,14.43,20.61v51.18h-27.48v-50.15c0-4.29-1.2-6.87-2.4-7.9h-23.19v58.05h-27.48v-137.4h58.74c11.34,0,20.61,9.27,20.61,20.61Zm-27.65,25.08v-18.03c0-1.72-.52-2.58-1.72-2.58h-22.5v26.79h21.47c1.89-1.03,2.75-2.58,2.75-6.18Z"/>
        <path class="cls-1" d="m983.46,221.58h29.37c13.74,0,24.73,10.99,24.73,24.73v21.64h-27.48v-18.38c0-1.72-.86-2.4-2.58-2.4h-18.89c-1.72,0-2.4.69-2.4,2.4v84.16c0,1.72.69,2.4,2.4,2.4h18.89c1.72,0,2.58-.69,2.58-2.4v-23.01h-15.8v-27.48h43.28v53.76c0,13.74-10.99,24.73-24.73,24.73h-29.37c-13.74,0-24.73-10.99-24.73-24.73v-90.68c0-13.74,10.99-24.73,24.73-24.73Z"/>
        <path class="cls-1" d="m1094.92,221.58h30.23c13.74,0,24.73,10.99,24.73,24.73v90.68c0,13.74-10.99,24.73-24.73,24.73h-30.23c-13.74,0-24.73-10.99-24.73-24.73v-90.68c0-13.74,10.99-24.73,24.73-24.73Zm5.15,114.56h19.75c1.72,0,2.58-.69,2.58-2.4v-84.16c0-1.72-.86-2.4-2.58-2.4h-19.75c-1.72,0-2.4.69-2.4,2.4v84.16c0,1.72.69,2.4,2.4,2.4Z"/>
        <path class="cls-1" d="m1211.54,332.87c0,2.23.69,3.26,2.4,3.26h19.92c1.72,0,2.4-1.03,2.4-3.26v-110.26h27.48v114.38c0,13.74-10.99,24.73-24.73,24.73h-30.23c-13.74,0-24.73-10.99-24.73-24.73v-114.38h27.48v110.26Z"/>
        <path class="cls-1" d="m1327.99,360.01h-27.48v-137.4h27.48v137.4Z"/>
        <path class="cls-1" d="m1428.12,332.53h1.72l-1.2-109.92h27.48v137.4h-45.69l-16.49-109.92h-1.55l1.2,109.92h-27.48v-137.4h45.86l16.14,109.92Z"/>
      </g>
    </g>
  </g>
</svg>